<?xml version="1.0" encoding="UTF-8"?>
<svg width="421px" height="52px" viewBox="0 0 421 52" version="1.1" xmlns="http://www.w3.org/2000/svg" xmlns:xlink="http://www.w3.org/1999/xlink">
    <!-- Generator: Sketch 50 (54983) - http://www.bohemiancoding.com/sketch -->
    <title>智慧景区（PC官网）/出行好帮手</title>
    <desc>Created with Sketch.</desc>
    <defs>
        <filter x="-0.5%" y="-0.9%" width="100.7%" height="103.6%" filterUnits="objectBoundingBox" id="filter-1">
            <feOffset dx="0" dy="0.5" in="SourceAlpha" result="shadowOffsetOuter1"></feOffset>
            <feGaussianBlur stdDeviation="0.25" in="shadowOffsetOuter1" result="shadowBlurOuter1"></feGaussianBlur>
            <feColorMatrix values="0 0 0 0 0.294117647   0 0 0 0 0.498039216   0 0 0 0 0.941176471  0 0 0 0.393682065 0" type="matrix" in="shadowBlurOuter1" result="shadowMatrixOuter1"></feColorMatrix>
            <feMerge>
                <feMergeNode in="shadowMatrixOuter1"></feMergeNode>
                <feMergeNode in="SourceGraphic"></feMergeNode>
            </feMerge>
        </filter>
        <filter x="-0.6%" y="-1.0%" width="101.2%" height="104.1%" filterUnits="objectBoundingBox" id="filter-2">
            <feOffset dx="0" dy="0.5" in="SourceAlpha" result="shadowOffsetOuter1"></feOffset>
            <feGaussianBlur stdDeviation="0.25" in="shadowOffsetOuter1" result="shadowBlurOuter1"></feGaussianBlur>
            <feColorMatrix values="0 0 0 0 0.294117647   0 0 0 0 0.498039216   0 0 0 0 0.941176471  0 0 0 0.393682065 0" type="matrix" in="shadowBlurOuter1" result="shadowMatrixOuter1"></feColorMatrix>
            <feMerge>
                <feMergeNode in="shadowMatrixOuter1"></feMergeNode>
                <feMergeNode in="SourceGraphic"></feMergeNode>
            </feMerge>
        </filter>
    </defs>
    <g id="智慧景区（PC官网）/出行好帮手" stroke="none" stroke-width="1" fill="none" fill-rule="evenodd">
        <g id="Group" filter="url(#filter-1)" transform="translate(0.000000, -1.000000)" fill="#4B7FF0">
            <rect id="Rectangle-9" x="175" y="2" width="1" height="48"></rect>
            <g filter="url(#filter-2)" transform="translate(0.000000, 2.000000)" id="Shape">
                <path d="M59.3464567,1.62439024 L87.3267717,1.62439024 L87.3267717,17.1463415 L68.6732283,17.1463415 C68.2204724,17.7780488 67.7677165,18.4097561 67.2244094,19.0414634 L89.4094488,19.0414634 L88.7755906,28.9682927 C88.5944882,30.9536585 88.1417323,32.4878049 87.4173228,33.4804878 C86.6929134,34.4731707 85.8779528,35.104878 85.0629921,35.2853659 C84.2480315,35.4658537 81.984252,35.5560976 78.2716535,35.5560976 C77.9094488,34.0219512 77.5472441,32.397561 77.003937,30.7731707 C75.1929134,32.7585366 73.1102362,34.5634146 70.6653543,36.0073171 C69.488189,35.104878 68.0393701,34.1121951 66.3188976,33.0292683 C71.2992126,30.3219512 74.7401575,26.9829268 76.4606299,23.102439 L72.9291339,23.102439 C70.1220472,27.9756098 65.4133858,31.9463415 58.6220472,34.8341463 C57.7165354,33.8414634 56.5393701,32.5780488 55.0905512,31.2243902 C60.8858268,28.9682927 64.8700787,26.3512195 67.0433071,23.102439 L63.4212598,23.102439 C61.9724409,24.3658537 60.4330709,25.6292683 58.7125984,26.7121951 C57.8976378,25.8097561 56.7204724,24.7268293 55.1811024,23.3731707 C58.2598425,21.8390244 60.8858268,19.7634146 62.9685039,17.2365854 L59.2559055,17.2365854 L59.2559055,1.62439024 L59.3464567,1.62439024 Z M82.2559055,5.59512195 L64.3267717,5.59512195 L64.3267717,7.67073171 L82.2559055,7.67073171 L82.2559055,5.59512195 Z M82.2559055,13.1756098 L82.2559055,11.1 L64.3267717,11.1 L64.3267717,13.1756098 L82.2559055,13.1756098 Z M77.2755906,30.5926829 C78.5433071,30.7731707 79.8110236,30.8634146 80.8976378,30.8634146 C81.7125984,30.8634146 82.2559055,30.7731707 82.6181102,30.6829268 C82.8897638,30.502439 83.1614173,30.2317073 83.3425197,29.8707317 C83.523622,29.5097561 83.7047244,28.6073171 83.8858268,27.1634146 C84.0669291,25.7195122 84.1574803,24.3658537 84.1574803,23.1926829 L81.8031496,23.1926829 C80.6259843,25.9 79.1771654,28.4268293 77.2755906,30.5926829 Z" fill-rule="nonzero"></path>
                <path d="M100.366142,35.2853659 C100.094488,33.7512195 99.8228346,32.2170732 99.4606299,30.8634146 C98.8267717,32.8487805 98.1023622,34.5634146 97.1968504,36.097561 C96.1102362,33.9317073 95.1141732,32.2170732 94.2086614,30.7731707 C94.9330709,29.2390244 95.5669291,27.5243902 96.019685,25.6292683 C96.4724409,23.8243902 96.7440945,21.9292683 96.9251969,20.1243902 C97.1062992,18.3195122 97.1062992,15.0707317 97.1968504,10.2878049 L94.6614173,10.2878049 L94.6614173,6.04634146 L99.3700787,6.04634146 C98.8267717,4.51219512 98.1929134,3.06829268 97.5590551,1.62439024 L102.53937,0.180487805 C103.625984,2.43658537 104.350394,4.15121951 104.80315,5.32439024 L102.53937,6.04634146 L108.153543,6.04634146 L108.153543,8.75365854 C110.055118,6.04634146 111.775591,3.15853659 113.133858,0.180487805 L117.661417,0.902439024 C117.299213,1.71463415 116.937008,2.61707317 116.574803,3.33902439 L129.704724,3.33902439 L129.704724,7.76097561 L114.311024,7.76097561 C113.496063,9.29512195 112.681102,10.6487805 111.775591,11.9121951 C117.027559,11.4609756 121.917323,10.6487805 126.535433,9.47560976 L128.61811,13.7170732 C126.354331,14.1682927 124.090551,14.5292683 121.826772,14.8902439 C122.007874,16.7853659 122.370079,18.5902439 122.822835,20.304878 C124.271654,19.2219512 125.720472,18.0487805 127.07874,16.8756098 L130.066929,20.304878 C128.346457,21.5682927 126.444882,22.9219512 124.452756,24.2756098 C125.901575,27.0731707 127.80315,29.4195122 130.338583,31.2243902 C128.980315,32.397561 127.622047,33.6609756 126.26378,35.0146341 C124,32.9390244 122.098425,30.502439 120.740157,27.6146341 C119.38189,24.7268293 118.385827,20.6658537 117.84252,15.4317073 L115.216535,15.702439 L115.216535,28.8780488 C117.11811,28.0658537 118.838583,27.3439024 120.19685,26.7121951 C120.19685,28.4268293 120.287402,30.0512195 120.377953,31.6756098 C115.850394,33.4804878 112.952756,34.8341463 111.685039,35.8268293 L108.877953,31.9463415 C109.874016,31.3146341 110.417323,30.4121951 110.507874,29.2390244 L110.507874,13.5365854 C109.330709,12.4536585 108.062992,11.3707317 106.795276,10.3780488 L101.452756,10.3780488 L101.452756,14.3487805 L108.334646,14.3487805 C108.334646,16.8756098 108.244094,19.8536585 108.153543,23.2829268 L107.972441,27.8853659 C107.972441,29.8707317 107.700787,31.404878 107.248031,32.5780488 C106.704724,33.6609756 106.070866,34.4731707 105.255906,34.7439024 C104.531496,35.104878 102.901575,35.2853659 100.366142,35.2853659 Z M99.6417323,30.3219512 L102.086614,30.4121951 C102.992126,30.4121951 103.535433,29.7804878 103.716535,28.4268293 C103.807087,27.0731707 103.988189,23.7341463 104.07874,18.4097561 L101.543307,18.4097561 C101.181102,23.102439 100.637795,27.0731707 99.6417323,30.3219512 Z" fill-rule="nonzero"></path>
                <path d="M169.275591,30.6829268 C168.551181,32.4878049 167.917323,34.1121951 167.464567,35.2853659 L148.53937,35.104878 C146.275591,35.0146341 144.464567,34.7439024 143.015748,34.1121951 C141.566929,33.4804878 140.389764,32.6682927 139.393701,31.5853659 L135.5,36.097561 L133.417323,30.502439 L136.858268,27.5243902 L136.858268,17.7780488 L133.688976,17.7780488 L133.688976,12.995122 L141.385827,12.995122 L141.385827,27.704878 C142.834646,29.6902439 145.370079,30.6829268 148.992126,30.6829268 L157.141732,30.7731707 C160.76378,30.7731707 164.838583,30.7731707 169.275591,30.6829268 Z M138.125984,0.36097561 C140.208661,2.88780488 141.838583,5.05365854 143.106299,6.94878049 L138.850394,9.74634146 C137.220472,7.2195122 135.681102,4.87317073 134.232283,2.88780488 L138.125984,0.36097561 Z M167.192913,1.71463415 L167.192913,5.86585366 L159.677165,10.0170732 L167.192913,10.0170732 L167.192913,25.5390244 C167.192913,26.7121951 167.011811,27.6146341 166.559055,28.2463415 C166.106299,28.8780488 165.472441,29.3292683 164.65748,29.5097561 C163.84252,29.6902439 162.031496,29.7804878 159.224409,29.7804878 C159.043307,28.697561 158.681102,27.4341463 158.318898,26.0804878 C159.496063,26.1707317 160.401575,26.1707317 161.125984,26.1707317 C162.122047,26.1707317 162.665354,25.6292683 162.665354,24.5463415 L162.665354,23.9146341 L157.775591,23.9146341 L157.775591,29.3292683 L153.429134,29.3292683 L153.429134,23.9146341 L148.720472,23.9146341 L148.720472,29.3292683 L144.192913,29.3292683 L144.192913,9.92682927 L151.074803,9.92682927 L147.181102,7.4902439 L148.992126,5.41463415 L143.92126,5.41463415 L143.92126,1.71463415 L167.192913,1.71463415 Z M148.720472,15.3414634 L153.429134,15.3414634 L153.429134,13.1756098 L148.720472,13.1756098 L148.720472,15.3414634 Z M148.720472,20.7560976 L153.429134,20.7560976 L153.429134,18.5902439 L148.720472,18.5902439 L148.720472,20.7560976 Z M160.944882,5.41463415 L150.350394,5.41463415 C151.799213,6.22682927 153.519685,7.2195122 155.42126,8.39268293 L160.944882,5.41463415 Z M162.665354,13.1756098 L157.775591,13.1756098 L157.775591,15.3414634 L162.665354,15.3414634 L162.665354,13.1756098 Z M157.775591,20.7560976 L162.665354,20.7560976 L162.665354,18.5902439 L157.775591,18.5902439 L157.775591,20.7560976 Z" fill-rule="nonzero"></path>
                <path d="M43.0604703,0 L4.79454816,0 C2.17111615,0 0,2.17358491 0,4.8 L0,43.109434 C0,45.7358491 2.17111615,47.909434 4.79454816,47.909434 L43.0604703,47.909434 C45.6839023,47.909434 47.8550184,45.7358491 47.8550184,43.109434 L47.8550184,4.8 C47.7645552,2.17358491 45.6839023,0 43.0604703,0 Z M43.3318598,16.3924528 C39.5324065,20.3773585 31.1193315,20.6490566 25.6010779,19.6528302 L27.0484887,16.9358491 C32.476279,18.2037736 37.4517535,18.2037736 43.3318598,16.3924528 Z M27.7721941,15.7584906 L28.9482153,13.5849057 C33.3809108,14.4 36.8185113,14.490566 41.4321332,13.3132075 C38.5373116,16.3924528 32.0239632,16.5735849 27.7721941,15.7584906 Z M44.2364915,25.0867925 C42.5176912,34.2339623 33.1999844,41.6603774 22.52533,41.9320755 C11.2174334,42.1132075 2.71389518,34.3245283 3.52806374,24.4528302 C4.3422323,14.5811321 14.112255,6.33962264 25.4201516,5.97735849 C29.4005312,5.88679245 33.1095213,6.79245283 36.094806,8.42264151 L34.3760057,11.5924528 C32.0239632,10.3245283 29.1291416,9.6 25.9629306,9.69056604 C17.0070765,9.96226415 8.86539094,16.2113208 7.87029604,23.6377358 C6.87520113,31.154717 13.2980864,37.0415094 22.2539405,36.7698113 C28.5863626,36.5886792 34.4664688,33.4188679 37.7231431,28.9811321 C31.9335,31.245283 24.9678357,31.154717 19.7209717,30.4301887 L21.982551,26.2641509 C29.5814575,27.6226415 36.9994377,27.2603774 44.2364915,25.0867925 Z M22.9776459,24.5433962 L24.7869094,21.1924528 C31.2097946,22.5509434 37.4517535,22.3698113 44.4174179,20.2867925 C39.8942592,25.1773585 29.852847,25.6301887 22.9776459,24.5433962 Z"></path>
                <g transform="translate(55.182535, 39.849057)" fill-rule="nonzero">
                    <path d="M10.493728,0.81509434 L8.59400142,7.96981132 L6.96566431,7.96981132 L5.78964306,3.26037736 C5.69917989,2.98867925 5.69917989,2.71698113 5.69917989,2.44528302 C5.69917989,2.80754717 5.60871671,2.98867925 5.60871671,3.26037736 L4.3422323,7.96981132 L2.62343201,7.96981132 L0.723705383,0.81509434 L2.35204249,0.81509434 L3.43760057,5.70566038 C3.52806374,5.88679245 3.52806374,6.15849057 3.52806374,6.52075472 C3.52806374,6.2490566 3.61852691,5.97735849 3.70899009,5.70566038 L4.97547451,0.81509434 L6.60381162,0.81509434 L7.77983286,5.70566038 C7.87029604,5.88679245 7.87029604,6.15849057 7.87029604,6.43018868 C7.87029604,6.15849057 7.96075921,5.88679245 7.96075921,5.61509434 L8.95585411,0.724528302 L10.493728,0.724528302 L10.493728,0.81509434 Z"></path>
                    <path d="M21.2588456,0.81509434 L19.359119,7.96981132 L17.7307819,7.96981132 L16.5547606,3.26037736 C16.4642975,2.98867925 16.4642975,2.71698113 16.4642975,2.44528302 C16.4642975,2.80754717 16.3738343,2.98867925 16.3738343,3.26037736 L15.1073499,7.96981132 L13.3885496,7.96981132 L11.4888229,0.81509434 L13.1171601,0.81509434 L14.2027181,5.70566038 C14.2931813,5.88679245 14.2931813,6.15849057 14.2931813,6.52075472 C14.2931813,6.2490566 14.3836445,5.97735849 14.4741077,5.70566038 L15.7405921,0.81509434 L17.3689292,0.81509434 L18.5449504,5.70566038 C18.6354136,5.88679245 18.6354136,6.15849057 18.6354136,6.43018868 C18.6354136,6.15849057 18.7258768,5.88679245 18.7258768,5.61509434 L19.7209717,0.724528302 L21.2588456,0.724528302 L21.2588456,0.81509434 Z"></path>
                    <path d="M32.1144264,0.81509434 L30.2146997,7.96981132 L28.5863626,7.96981132 L27.4103414,3.26037736 C27.3198782,2.98867925 27.3198782,2.71698113 27.3198782,2.44528302 C27.3198782,2.80754717 27.229415,2.98867925 27.229415,3.26037736 L25.9629306,7.96981132 L24.2441303,7.96981132 L22.3444037,0.81509434 L23.9727408,0.81509434 L25.0582989,5.70566038 C25.148762,5.88679245 25.148762,6.15849057 25.148762,6.52075472 C25.148762,6.2490566 25.2392252,5.97735849 25.3296884,5.70566038 L26.5961728,0.81509434 L28.2245099,0.81509434 L29.4005312,5.70566038 C29.4909943,5.88679245 29.4909943,6.15849057 29.4909943,6.43018868 C29.4909943,6.15849057 29.5814575,5.88679245 29.5814575,5.61509434 L30.5765524,0.724528302 L32.1144264,0.724528302 L32.1144264,0.81509434 Z"></path>
                    <path d="M32.8381317,7.33584906 C32.8381317,7.06415094 32.9285949,6.88301887 33.1095213,6.79245283 C33.2904476,6.61132075 33.4713739,6.61132075 33.7427635,6.61132075 C34.014153,6.61132075 34.1950793,6.70188679 34.3760057,6.88301887 C34.556932,7.06415094 34.6473952,7.24528302 34.6473952,7.42641509 C34.6473952,7.69811321 34.556932,7.87924528 34.3760057,7.96981132 C34.1950793,8.1509434 34.014153,8.1509434 33.7427635,8.1509434 C33.4713739,8.1509434 33.2904476,8.06037736 33.1095213,7.87924528 C32.9285949,7.78867925 32.8381317,7.60754717 32.8381317,7.33584906 Z"></path>
                    <path d="M41.884449,0.81509434 L39.6228697,5.43396226 L39.6228697,7.96981132 L38.0849958,7.96981132 L38.0849958,5.43396226 L35.8234164,0.81509434 L37.5422167,0.81509434 L38.718238,3.53207547 C38.718238,3.62264151 38.8087011,3.80377358 38.8991643,4.0754717 C38.8991643,3.89433962 38.9896275,3.71320755 39.0800907,3.53207547 L40.2561119,0.724528302 L41.884449,0.724528302 L41.884449,0.81509434 Z"></path>
                    <polygon points="47.6740921 7.96981132 43.5127861 7.96981132 43.5127861 0.81509434 47.4931657 0.81509434 47.4931657 2.08301887 44.9601969 2.08301887 44.9601969 3.80377358 47.3122394 3.80377358 47.3122394 5.07169811 44.9601969 5.07169811 44.9601969 6.79245283 47.6740921 6.79245283 47.6740921 7.96981132"></polygon>
                    <path d="M55.8157776,7.96981132 L54.1874405,7.96981132 L53.6446615,6.33962264 L51.1116926,6.33962264 L50.5689136,7.96981132 L48.9405765,7.96981132 L51.5640085,0.81509434 L53.373272,0.81509434 L55.8157776,7.96981132 Z M53.373272,5.16226415 L52.5591034,2.62641509 C52.4686402,2.44528302 52.4686402,2.26415094 52.4686402,1.99245283 C52.4686402,2.17358491 52.3781771,2.44528302 52.3781771,2.62641509 L51.5640085,5.16226415 L53.373272,5.16226415 Z"></path>
                    <polygon points="63.5956105 7.96981132 62.0577366 7.96981132 62.0577366 4.98113208 59.0724519 4.98113208 59.0724519 7.96981132 57.5345779 7.96981132 57.5345779 0.81509434 59.0724519 0.81509434 59.0724519 3.71320755 62.0577366 3.71320755 62.0577366 0.81509434 63.5956105 0.81509434"></polygon>
                    <polygon points="70.8326643 2.08301887 68.8424745 2.08301887 68.8424745 8.06037736 67.3046006 8.06037736 67.3046006 2.08301887 65.3144108 2.08301887 65.3144108 0.81509434 70.8326643 0.81509434 70.8326643 2.08301887"></polygon>
                    <path d="M71.8277592,4.52830189 C71.8277592,3.44150943 72.1896119,2.44528302 72.8228541,1.81132075 C73.4560963,1.17735849 74.3607281,0.724528302 75.355823,0.724528302 C76.3509179,0.724528302 77.1650864,1.08679245 77.7983286,1.72075472 C78.4315708,2.44528302 78.7029604,3.26037736 78.7029604,4.34716981 C78.7029604,5.43396226 78.3411077,6.33962264 77.7078655,7.06415094 C77.0746232,7.78867925 76.2604547,8.1509434 75.1748966,8.1509434 C74.1798017,8.1509434 73.3656332,7.78867925 72.7323909,7.15471698 C72.0991487,6.52075472 71.8277592,5.61509434 71.8277592,4.52830189 Z M73.3656332,4.43773585 C73.3656332,5.16226415 73.5465595,5.70566038 73.817949,6.15849057 C74.1798017,6.61132075 74.6321176,6.79245283 75.1748966,6.79245283 C75.8081388,6.79245283 76.2604547,6.61132075 76.5318442,6.15849057 C76.8936969,5.70566038 76.9841601,5.16226415 76.9841601,4.43773585 C76.9841601,3.71320755 76.8032337,3.07924528 76.5318442,2.62641509 C76.1699915,2.17358491 75.8081388,1.99245283 75.1748966,1.99245283 C74.5416544,1.99245283 74.0893385,2.17358491 73.817949,2.62641509 C73.5465595,3.16981132 73.3656332,3.71320755 73.3656332,4.43773585 Z"></path>
                    <path d="M86.39233,4.89056604 C86.39233,7.06415094 85.3972351,8.1509434 83.4975085,8.1509434 C81.5977819,8.1509434 80.6931502,7.06415094 80.6931502,4.98113208 L80.6931502,0.81509434 L82.2310241,0.81509434 L82.2310241,4.98113208 C82.2310241,6.15849057 82.68334,6.79245283 83.5879717,6.79245283 C84.4926034,6.79245283 84.9449193,6.2490566 84.9449193,5.07169811 L84.9449193,0.81509434 L86.4827932,0.81509434 L86.4827932,4.89056604 L86.39233,4.89056604 Z"></path>
                    <path d="M94.5340156,7.96981132 L92.8152153,7.96981132 L91.7296572,6.06792453 C91.4582677,5.70566038 91.2773414,5.43396226 91.1868782,5.34339623 C91.0059519,5.25283019 90.9154887,5.16226415 90.7345623,5.16226415 L90.2822465,5.16226415 L90.2822465,7.96981132 L88.6539094,7.96981132 L88.6539094,0.81509434 L91.096415,0.81509434 C92.8152153,0.81509434 93.6293839,1.4490566 93.6293839,2.80754717 C93.6293839,3.26037736 93.4484575,3.71320755 93.177068,4.0754717 C92.9056785,4.43773585 92.5438258,4.70943396 92.0010468,4.8 C92.3628995,4.89056604 92.7247521,5.25283019 93.0866048,5.88679245 L94.5340156,7.96981132 Z M90.1917833,1.99245283 L90.1917833,4.0754717 L90.9154887,4.0754717 C91.2773414,4.0754717 91.5487309,3.98490566 91.7296572,3.80377358 C91.9105836,3.62264151 92.0915099,3.3509434 92.0915099,2.98867925 C92.0915099,2.35471698 91.7296572,1.99245283 90.9154887,1.99245283 L90.1917833,1.99245283 Z"></path>
                    <path d="M95.6195737,7.33584906 C95.6195737,7.06415094 95.7100368,6.88301887 95.8909632,6.79245283 C96.0718895,6.61132075 96.2528159,6.61132075 96.5242054,6.61132075 C96.7955949,6.61132075 96.9765213,6.70188679 97.1574476,6.88301887 C97.338374,7.06415094 97.4288371,7.24528302 97.4288371,7.42641509 C97.4288371,7.69811321 97.338374,7.87924528 97.1574476,7.96981132 C96.9765213,8.1509434 96.7955949,8.1509434 96.5242054,8.1509434 C96.2528159,8.1509434 96.0718895,8.06037736 95.8909632,7.87924528 C95.7100368,7.78867925 95.6195737,7.60754717 95.6195737,7.33584906 Z"></path>
                    <path d="M104.484965,7.78867925 C103.942186,8.06037736 103.308943,8.1509434 102.494775,8.1509434 C101.409217,8.1509434 100.595048,7.78867925 99.961806,7.15471698 C99.3285638,6.52075472 99.0571742,5.61509434 99.0571742,4.52830189 C99.0571742,3.3509434 99.4190269,2.44528302 100.142732,1.72075472 C100.866438,0.996226415 101.771069,0.633962264 102.856627,0.633962264 C103.580333,0.633962264 104.123112,0.724528302 104.575428,0.905660377 L104.575428,2.35471698 C104.123112,2.08301887 103.580333,1.90188679 102.947091,1.90188679 C102.223385,1.90188679 101.680606,2.08301887 101.318754,2.53584906 C100.866438,2.98867925 100.685511,3.53207547 100.685511,4.25660377 C100.685511,4.98113208 100.866438,5.5245283 101.22829,5.97735849 C101.590143,6.43018868 102.132922,6.61132075 102.856627,6.61132075 C103.48987,6.61132075 104.032649,6.43018868 104.575428,6.15849057 L104.575428,7.78867925 L104.484965,7.78867925 Z"></path>
                    <path d="M112.807577,7.96981132 L111.269703,7.96981132 L108.284418,3.3509434 C108.103492,3.07924528 108.013028,2.89811321 107.922565,2.80754717 C107.922565,3.07924528 107.922565,3.44150943 107.922565,3.98490566 L107.922565,8.06037736 L106.475154,8.06037736 L106.475154,0.905660377 L108.103492,0.905660377 L110.998313,5.43396226 C111.179239,5.70566038 111.269703,5.88679245 111.360166,5.97735849 C111.360166,5.79622642 111.269703,5.43396226 111.269703,4.98113208 L111.269703,0.905660377 L112.717113,0.905660377 L112.717113,7.96981132 L112.807577,7.96981132 Z"></path>
                </g>
            </g>
            <path d="M210.742188,39.875 C210.742188,39.744791 210.872395,39.614584 211.132812,39.484375 C211.263021,39.484375 211.328125,39.354168 211.328125,39.09375 C211.197916,38.0520781 210.546881,36.8802148 209.375,35.578125 L201.171875,38.5078125 C199.348949,39.1588574 197.981775,39.614582 197.070312,39.875 C196.549477,40.005209 195.833338,40.3307266 194.921875,40.8515625 C193.229158,41.7630254 191.861984,42.21875 190.820312,42.21875 C189.388014,42.21875 188.671875,41.8281289 188.671875,41.046875 C188.411457,40.656248 189.973941,38.7031426 193.359375,35.1875 C193.880211,34.5364551 194.856764,33.4947988 196.289062,32.0625 C197.591152,30.4999922 198.502602,29.4583359 199.023438,28.9375 L199.023438,24.4453125 C191.731734,29.1328359 187.109385,31.541666 185.15625,31.671875 C184.635414,31.541666 184.179689,31.2161484 183.789062,30.6953125 C183.658854,30.3046855 183.854164,29.9140645 184.375,29.5234375 L184.570312,29.328125 C185.611984,27.2447812 186.197916,26.0078145 186.328125,25.6171875 C186.458334,25.3567695 186.653645,24.7057344 186.914062,23.6640625 C187.825525,20.7994648 188.541664,19.3671875 189.0625,19.3671875 C189.713545,19.3671875 190.104166,19.8229121 190.234375,20.734375 C190.234375,21.9062559 189.648443,23.6640508 188.476562,26.0078125 C188.216145,26.6588574 188.020834,27.114582 187.890625,27.375 C187.760416,27.635418 187.760416,27.895832 187.890625,28.15625 C188.020834,28.286459 188.216145,28.286459 188.476562,28.15625 C192.122414,26.5937422 195.703107,24.5104297 199.21875,21.90625 C199.21875,20.7343691 199.283854,18.7812637 199.414062,16.046875 C199.544271,13.3124863 199.609375,11.2942773 199.609375,9.9921875 C199.479166,9.9921875 199.088545,9.92708398 198.4375,9.796875 L197.070312,9.796875 C195.247387,9.27603906 194.335938,8.55990039 194.335938,7.6484375 C194.596355,6.47655664 195.312494,5.76041797 196.484375,5.5 C197.005211,5.5 197.330729,5.76041406 197.460938,6.28125 C197.460938,6.93229492 197.721352,7.2578125 198.242188,7.2578125 L201.757812,7.2578125 C202.278648,7.2578125 202.604166,7.58333008 202.734375,8.234375 C202.213539,12.1406445 201.953125,16.111959 201.953125,20.1484375 C204.296887,18.7161387 206.835924,17.6744824 209.570312,17.0234375 C209.700521,16.8932285 209.830729,16.697918 209.960938,16.4375 C210.221355,15.7864551 210.742184,15.4609375 211.523438,15.4609375 C212.955736,15.8515645 213.867186,16.8281172 214.257812,18.390625 C214.257812,18.651043 214.127605,18.8463535 213.867188,18.9765625 C213.867188,18.8463535 213.802084,18.8463535 213.671875,18.9765625 C210.286441,21.3203242 206.315127,24.5755 201.757812,28.7421875 C201.757812,29.5234414 201.692709,30.7604082 201.5625,32.453125 C201.5625,34.1458418 201.497396,35.3828086 201.367188,36.1640625 C202.669277,35.9036445 204.687486,35.2526094 207.421875,34.2109375 C207.812502,34.0807285 208.072916,34.015625 208.203125,34.015625 C206.901035,32.7135352 206.25,31.6718789 206.25,30.890625 C206.380209,30.3697891 206.57552,30.109375 206.835938,30.109375 C207.226564,30.109375 207.8776,30.5650996 208.789062,31.4765625 L208.984375,31.671875 C212.109391,34.0156367 213.867186,36.2291563 214.257812,38.3125 C214.778648,41.1770977 214.453131,42.609375 213.28125,42.609375 C212.239578,42.609375 211.393232,41.6979258 210.742188,39.875 Z M198.985997,31.707631 C196.137278,34.4295343 193.675824,37.0868601 191.601562,39.6796875 C193.554697,39.1588516 196.028631,38.3125059 199.023438,37.140625 C198.893229,36.749998 198.763021,36.2291699 198.632812,35.578125 C198.502604,35.187498 198.4375,34.927084 198.4375,34.796875 C198.4375,34.666666 198.502604,34.536459 198.632812,34.40625 C198.632812,34.276041 198.697916,34.2109375 198.828125,34.2109375 C198.828125,32.6872361 198.880877,31.8493259 198.986381,31.6971886 L198.985997,31.707631 Z M209.179688,19.171875 C206.835926,19.432293 204.361992,20.4739492 201.757812,22.296875 L201.757812,26.203125 C203.580738,24.7708262 206.054672,22.4270996 209.179688,19.171875 Z M251.257812,39.484375 L251.257812,39.09375 C251.127604,38.703123 251.192707,38.442709 251.453125,38.3125 C251.843752,38.572918 252.104166,39.0937461 252.234375,39.875 C252.364584,40.005209 252.429688,40.135416 252.429688,40.265625 C253.861986,41.8281328 255.098953,42.6744785 256.140625,42.8046875 C256.270834,42.8046875 256.401041,42.6744805 256.53125,42.4140625 C257.052086,41.1119727 257.182293,37.2708652 256.921875,30.890625 C257.312502,28.0260273 257.312502,25.1614727 256.921875,22.296875 C254.578113,22.8177109 251.322937,24.3150918 247.15625,26.7890625 C244.55207,28.2213613 242.598965,29.2630176 241.296875,29.9140625 C240.124994,29.7838535 239.799477,29.2630254 240.320312,28.3515625 C241.231775,27.5703086 242.078121,26.6588594 242.859375,25.6171875 C249.760451,16.8931855 253.276041,12.1406289 253.40625,11.359375 L253.40625,10.96875 C250.932279,12.6614668 248.979174,13.5078125 247.546875,13.5078125 C246.765621,13.5078125 246.375,13.1171914 246.375,12.3359375 C246.375,12.0755195 246.765621,11.8151055 247.546875,11.5546875 L247.742188,11.359375 C247.872396,11.359375 248.328121,11.229168 249.109375,10.96875 L250.28125,10.578125 C250.671877,10.447916 251.322912,10.1223984 252.234375,9.6015625 C254.18751,8.42968164 255.749994,7.84375 256.921875,7.84375 C257.833338,7.71354102 258.354166,8.10416211 258.484375,9.015625 C258.484375,9.53646094 257.898443,10.0572891 256.726562,10.578125 C256.466145,10.838543 256.270834,10.96875 256.140625,10.96875 C250.932266,16.1771094 246.830744,21.2551836 243.835938,26.203125 C250.737014,22.2968555 257.572883,19.6276113 264.34375,18.1953125 C264.864586,18.0651035 265.776035,17.7395859 267.078125,17.21875 C269.552096,16.3072871 271.309891,15.8515625 272.351562,15.8515625 C273.393234,15.9817715 273.979166,16.5025996 274.109375,17.4140625 C273.979166,18.0651074 273.653648,18.4557285 273.132812,18.5859375 L272.742188,18.5859375 C272.48177,18.4557285 272.221355,18.390625 271.960938,18.390625 C271.049475,18.651043 269.747404,18.911457 268.054688,19.171875 C264.539045,19.8229199 261.934904,20.5390586 260.242188,21.3203125 L260.046875,21.3203125 C259.786457,21.4505215 259.65625,21.645832 259.65625,21.90625 C259.526041,24.9010566 259.460938,29.5234063 259.460938,35.7734375 L259.460938,40.4609375 C259.330729,42.5442812 258.940107,44.1067656 258.289062,45.1484375 C258.028645,45.9296914 257.57292,46.3203125 256.921875,46.3203125 C256.661457,46.3203125 256.205732,45.9947949 255.554688,45.34375 C255.29427,44.8229141 255.033855,44.4973965 254.773438,44.3671875 C254.643229,44.2369785 254.382814,44.041668 253.992188,43.78125 C252.039053,42.4791602 251.127604,41.0468828 251.257812,39.484375 Z M235.4375,39.2890625 L235.4375,38.1171875 C235.4375,37.4661426 235.502604,36.4895898 235.632812,35.1875 L235.632812,31.8671875 C235.763021,30.1744707 235.632814,29.197918 235.242188,28.9375 C234.460934,29.328127 233.419277,29.9791621 232.117188,30.890625 C229.903635,32.4531328 228.14584,33.4296855 226.84375,33.8203125 C226.453123,33.8203125 226.192709,33.625002 226.0625,33.234375 C226.0625,33.104166 227.690088,31.8671992 230.945312,29.5234375 L231.335938,29.1328125 C235.111998,25.8775879 237.976553,22.6875156 239.929688,19.5625 L239.929688,19.3671875 C239.929688,18.7161426 239.278652,18.260418 237.976562,18 C236.934891,17.869791 236.414062,17.5442734 236.414062,17.0234375 C236.544271,15.5911387 237.0651,14.2239648 237.976562,12.921875 C238.106771,12.661457 238.367186,12.2708359 238.757812,11.75 C239.278648,11.0989551 239.539062,10.5130234 239.539062,9.9921875 L239.539062,9.2109375 C239.408854,8.69010156 239.34375,8.29948047 239.34375,8.0390625 C239.34375,7.51822656 239.604164,7.2578125 240.125,7.2578125 C241.817717,7.77864844 242.79427,8.69009766 243.054688,9.9921875 C243.054688,10.5130234 242.794273,10.9036445 242.273438,11.1640625 C241.882811,11.2942715 241.622396,11.489582 241.492188,11.75 C241.361979,12.140627 241.036461,12.6614551 240.515625,13.3125 C239.473953,14.3541719 238.953125,15.1354141 238.953125,15.65625 C238.953125,16.046877 239.60416,16.437498 240.90625,16.828125 C242.729176,17.3489609 243.640625,17.9999961 243.640625,18.78125 C243.640625,19.041668 243.445314,19.3671855 243.054688,19.7578125 C242.143225,21.0599023 240.710947,22.8828008 238.757812,25.2265625 C238.106768,25.8776074 237.651043,26.3984355 237.390625,26.7890625 C238.171879,29.0026152 238.497396,31.2812383 238.367188,33.625 C238.757814,33.234373 239.083332,33.0390625 239.34375,33.0390625 C239.473959,32.9088535 239.539062,32.973957 239.539062,33.234375 C239.539062,33.625002 239.408855,34.0807266 239.148438,34.6015625 C239.018229,34.9921895 238.888021,35.317707 238.757812,35.578125 C238.757812,35.708334 238.692709,35.968748 238.5625,36.359375 C238.302082,37.2708379 238.041668,38.5078047 237.78125,40.0703125 C237.390623,40.2005215 237.130209,40.265625 237,40.265625 C236.609373,40.265625 236.153648,40.0052109 235.632812,39.484375 L235.4375,39.2890625 Z M298.363567,37.9690617 C298.317466,37.9544185 298.269194,37.9386896 298.21875,37.921875 C298.351096,37.988048 298.399368,38.0037769 298.363567,37.9690617 Z M298.363567,37.9690617 C298.328922,37.9354676 298.215546,37.8546346 298.023438,37.7265625 L296.265625,35.96875 C295.354162,35.1874961 294.76823,34.666668 294.507812,34.40625 L294.117188,34.2109375 C293.85677,34.2109375 293.466148,34.6015586 292.945312,35.3828125 C292.03385,36.5546934 291.317711,37.140625 290.796875,37.140625 C289.494785,37.010416 288.713543,35.8385527 288.453125,33.625 C288.453125,33.494791 288.583332,33.4296875 288.84375,33.4296875 C289.104168,33.4296875 289.364582,33.624998 289.625,34.015625 C289.885418,34.406252 290.145832,34.6015625 290.40625,34.6015625 C291.057295,34.3411445 291.578123,33.6250059 291.96875,32.453125 C291.187496,31.5416621 290.210943,30.6953164 289.039062,29.9140625 C288.257809,29.3932266 287.802084,28.937502 287.671875,28.546875 C286.369785,29.3281289 284.351576,30.6301992 281.617188,32.453125 C279.533844,33.8854238 277.971359,34.9270801 276.929688,35.578125 C276.278643,35.317707 275.953125,34.9270859 275.953125,34.40625 C275.953125,34.015623 276.148436,33.625002 276.539062,33.234375 C278.10157,30.3697773 280.184883,28.4166719 282.789062,27.375 C283.179689,27.375 283.375,27.505207 283.375,27.765625 C283.375,28.4166699 282.789068,29.0026016 281.617188,29.5234375 C280.445307,30.1744824 279.794271,30.8255176 279.664062,31.4765625 C281.22657,30.6953086 283.830711,29.1328242 287.476562,26.7890625 C287.867189,26.6588535 288.388018,26.2682324 289.039062,25.6171875 C290.731779,22.8827988 292.554678,17.479207 294.507812,9.40625 C294.507812,8.88541406 294.377605,8.625 294.117188,8.625 L291.1875,8.625 C290.536455,8.23437305 290.145834,7.77864844 290.015625,7.2578125 C290.145834,6.73697656 291.447904,6.41145898 293.921875,6.28125 C295.744801,6.80208594 296.786457,7.58332813 297.046875,8.625 C297.046875,9.27604492 296.851564,10.1223906 296.460938,11.1640625 C296.20052,11.8151074 296.005209,12.270832 295.875,12.53125 C295.093746,16.1771016 293.921883,19.888002 292.359375,23.6640625 C292.619793,23.4036445 293.140621,23.078127 293.921875,22.6875 C294.442711,22.427082 294.768229,22.2317715 294.898438,22.1015625 L294.898438,21.515625 C294.768229,21.385416 294.703125,21.255209 294.703125,21.125 C294.703125,20.6041641 294.898436,20.2786465 295.289062,20.1484375 C296.330734,19.8880195 297.307287,19.7578125 298.21875,19.7578125 C298.869795,19.6276035 299.260416,20.0182246 299.390625,20.9296875 C299.390625,21.0598965 299.325521,21.1901035 299.195312,21.3203125 C299.195312,21.5807305 299.130209,21.776041 299,21.90625 C298.869791,22.8177129 298.67448,23.468748 298.414062,23.859375 C297.638375,25.5400313 296.670162,27.7340953 295.509394,30.4416321 C295.58086,30.3440637 295.76652,30.3046875 296.070312,30.3046875 C296.721357,30.4348965 297.242186,30.5 297.632812,30.5 C298.804693,30.5 300.04166,30.1093789 301.34375,29.328125 L302.515625,28.7421875 C302.645834,28.7421875 302.906248,28.677084 303.296875,28.546875 C306.161473,27.5052031 308.309889,26.6588574 309.742188,26.0078125 C309.48177,24.7057227 309.156252,23.7291699 308.765625,23.078125 C308.505207,22.687498 307.723965,22.4921875 306.421875,22.4921875 C306.291666,22.4921875 306.031252,22.557291 305.640625,22.6875 C305.249998,22.817709 304.92448,22.8828125 304.664062,22.8828125 C304.013018,22.7526035 303.752604,22.2968789 303.882812,21.515625 C305.315111,18.9114453 306.812492,16.2422012 308.375,13.5078125 C307.984373,13.5078125 307.203131,13.8333301 306.03125,14.484375 C305.640623,14.744793 305.380209,14.9401035 305.25,15.0703125 C304.729164,15.3307305 303.947922,15.8515586 302.90625,16.6328125 C301.60416,17.5442754 300.627607,18.130207 299.976562,18.390625 C299.455727,18.390625 299.130209,18.0651074 299,17.4140625 L299.585938,16.4375 C299.585938,16.307291 299.911455,16.2421875 300.5625,16.2421875 C301.083336,15.9817695 301.669268,15.656252 302.320312,15.265625 L302.710938,14.875 C305.184908,13.8333281 307.333324,12.6614648 309.15625,11.359375 C309.546877,11.229166 309.937498,11.0338555 310.328125,10.7734375 L310.328125,9.6015625 C310.197916,9.34114453 310.132812,9.08073047 310.132812,8.8203125 C310.132812,8.55989453 310.26302,8.29948047 310.523438,8.0390625 L311.109375,8.0390625 C313.322928,8.16927148 314.429688,8.82030664 314.429688,9.9921875 C314.429688,10.2526055 314.29948,10.447916 314.039062,10.578125 L311.109375,13.5078125 C308.114568,17.283873 306.552084,19.6927031 306.421875,20.734375 L306.617188,20.734375 C308.179695,20.473957 309.481766,21.1249922 310.523438,22.6875 L311.109375,24.4453125 C311.239584,24.9661484 311.369791,25.3567695 311.5,25.6171875 C313.322926,24.9661426 314.820307,24.5755215 315.992188,24.4453125 C317.945322,23.9244766 320.028635,23.6640625 322.242188,23.6640625 C323.023441,23.6640625 323.414062,24.0546836 323.414062,24.8359375 C323.414062,25.4869824 323.218752,25.8125 322.828125,25.8125 C320.223945,25.8125 318.075529,25.942707 316.382812,26.203125 C314.950514,26.463543 313.453133,26.7890605 311.890625,27.1796875 C312.411461,30.0442852 312.671875,32.0624941 312.671875,33.234375 C312.541666,39.0937793 310.588561,43.3906113 306.8125,46.125 L306.421875,46.125 C303.687486,45.2135371 301.53907,44.1067773 299.976562,42.8046875 C299.976562,42.5442695 300.171873,42.479166 300.5625,42.609375 C302.125008,42.739584 303.231768,42.869791 303.882812,43 C304.14323,43 304.403645,43.0651035 304.664062,43.1953125 C305.705734,43.5859395 306.291666,43.651043 306.421875,43.390625 C309.286473,41.6979082 310.71875,37.9870078 310.71875,32.2578125 C310.71875,30.8255137 310.523439,29.2630293 310.132812,27.5703125 C307.398424,28.4817754 304.859387,29.5234316 302.515625,30.6953125 C302.255207,30.8255215 301.799482,31.020832 301.148438,31.28125 C299.846348,32.0625039 298.674484,32.453125 297.632812,32.453125 C297.372395,32.453125 296.91667,32.322918 296.265625,32.0625 C296.005207,31.932291 295.809896,31.8671875 295.679688,31.8671875 C295.41927,31.4765605 295.289062,31.151043 295.289062,30.890625 C295.158854,30.890625 295.09375,31.020832 295.09375,31.28125 C294.833332,31.541668 294.833332,31.8671855 295.09375,32.2578125 C298.739602,34.6015742 300.367189,36.0989551 299.976562,36.75 C300.106771,37.5312539 299.781254,37.9869785 299,38.1171875 C298.886606,38.1171875 298.674463,38.0678127 298.363567,37.9690617 Z M295.509394,30.4416321 C295.501064,30.4610617 295.492725,30.4805176 295.484375,30.5 C295.484375,30.4710551 295.494026,30.4453275 295.513329,30.422817 L295.509394,30.4416321 Z M290.210938,27.9609375 C291.382818,29.1328184 292.294268,29.9140605 292.945312,30.3046875 C294.117193,28.2213438 295.15885,26.0078242 296.070312,23.6640625 C296.070312,23.4036445 296.005209,23.2734375 295.875,23.2734375 C294.052074,24.1849004 292.359383,25.3567637 290.796875,26.7890625 C290.276039,27.0494805 290.080729,27.4401016 290.210938,27.9609375 Z M347.71875,48.6640625 C347.588541,46.7109277 347.523438,44.8880293 347.523438,43.1953125 L347.523438,39.2890625 C347.653646,35.252584 347.653646,32.6484434 347.523438,31.4765625 C344.65884,32.9088613 342.835941,33.9505176 342.054688,34.6015625 C341.924479,34.7317715 341.794271,34.927082 341.664062,35.1875 C341.273436,35.8385449 340.882814,36.1640625 340.492188,36.1640625 C339.710934,36.0338535 339.255209,35.5781289 339.125,34.796875 C339.125,34.2760391 339.385414,33.6250039 339.90625,32.84375 C340.166668,32.1927051 340.361979,31.7369805 340.492188,31.4765625 C340.752605,30.8255176 341.20833,29.8489648 341.859375,28.546875 C342.119793,28.156248 342.25,27.895834 342.25,27.765625 C343.291672,26.2031172 345.179674,24.1849082 347.914062,21.7109375 C348.304689,21.3203105 348.890621,21.125 349.671875,21.125 C350.192711,21.125 350.648436,21.0598965 351.039062,20.9296875 C351.29948,20.6692695 351.429688,20.343752 351.429688,19.953125 C351.559896,18.3906172 351.625,16.3724082 351.625,13.8984375 L351.625,11.5546875 C351.625,11.1640605 351.429689,11.0338535 351.039062,11.1640625 L350.453125,11.1640625 C350.062498,11.2942715 349.802084,11.359375 349.671875,11.359375 C349.541666,11.359375 349.151045,11.0338574 348.5,10.3828125 L348.109375,9.9921875 C347.848957,9.47135156 348.109371,9.2109375 348.890625,9.2109375 C350.062506,9.47135547 351.62499,9.08073437 353.578125,8.0390625 C353.968752,7.77864453 354.749994,7.32291992 355.921875,6.671875 C358.135428,5.49999414 359.437498,4.71875195 359.828125,4.328125 L359.828125,2.9609375 C359.828125,2.70051953 360.088539,2.5703125 360.609375,2.5703125 C362.302092,2.70052148 363.213541,3.22134961 363.34375,4.1328125 C363.473959,4.26302148 363.343752,4.45833203 362.953125,4.71875 L359.828125,8.0390625 L359.4375,8.4296875 C358.005201,10.1224043 357.289062,11.4244746 357.289062,12.3359375 C357.54948,12.5963555 358.070309,12.8567695 358.851562,13.1171875 C359.11198,13.2473965 359.307291,13.3776035 359.4375,13.5078125 C362.822934,15.0703203 364.580729,16.8932188 364.710938,18.9765625 C364.45052,19.7578164 363.929691,20.083334 363.148438,19.953125 C362.757811,19.953125 362.171879,19.822918 361.390625,19.5625 C360.869789,19.302082 360.414064,19.171875 360.023438,19.171875 C359.502602,19.041666 358.656256,18.911459 357.484375,18.78125 C356.963539,18.651041 356.572918,18.5859375 356.3125,18.5859375 L355.921875,18.390625 C355.010412,18.130207 354.554688,17.8046895 354.554688,17.4140625 C354.554688,17.1536445 354.749998,17.0234375 355.140625,17.0234375 L357.289062,17.0234375 C358.721361,17.1536465 359.567707,17.21875 359.828125,17.21875 L360.023438,17.21875 C360.674482,17.348959 360.934896,17.2838555 360.804688,17.0234375 C360.414061,16.5026016 359.242197,15.7213594 357.289062,14.6796875 C355.466137,13.7682246 354.554688,13.182293 354.554688,12.921875 C354.424479,12.531248 355.596342,10.5130391 358.070312,6.8671875 C357.809895,6.99739648 357.093756,7.38801758 355.921875,8.0390625 L353.578125,9.2109375 C353.317707,9.60156445 353.317707,10.1874961 353.578125,10.96875 L353.578125,19.3671875 C353.447916,21.4505312 353.382812,22.687498 353.382812,23.078125 L353.1875,23.2734375 C352.796873,23.7942734 352.471355,24.0546875 352.210938,24.0546875 C352.080729,24.0546875 351.820314,23.9244805 351.429688,23.6640625 C351.039061,23.2734355 350.648439,23.078125 350.257812,23.078125 C349.34635,23.078125 348.304693,23.7291602 347.132812,25.03125 L346.351562,25.8125 C343.617174,28.2864707 342.380207,30.4348867 342.640625,32.2578125 C344.072924,31.4765586 345.570305,30.6953164 347.132812,29.9140625 C347.002604,29.1328086 346.9375,28.0260488 346.9375,26.59375 C347.328127,25.6822871 348.174473,25.0963555 349.476562,24.8359375 C350.518234,24.7057285 350.778648,25.8775918 350.257812,28.3515625 C351.429693,27.8307266 352.536453,27.375002 353.578125,26.984375 C354.22917,26.593748 355.401033,26.3984375 357.09375,26.3984375 C359.567721,26.5286465 360.869791,27.3098887 361,28.7421875 C361,29.2630234 360.674482,29.7838516 360.023438,30.3046875 C359.76302,30.4348965 359.567709,30.5651035 359.4375,30.6953125 C356.963529,33.1692832 355.531252,34.6666641 355.140625,35.1875 L354.359375,35.7734375 C353.838539,36.0338555 353.513021,36.229166 353.382812,36.359375 C352.731768,36.489584 351.885422,36.2942734 350.84375,35.7734375 C350.453123,35.5130195 350.192709,35.3828125 350.0625,35.3828125 C349.932291,45.1484863 349.346359,49.7708359 348.304688,49.25 C348.174479,49.25 347.979168,49.0546895 347.71875,48.6640625 Z M342.835938,14.6796875 C343.096355,14.6796875 343.35677,14.614584 343.617188,14.484375 C344.007814,14.354166 344.398436,14.2890625 344.789062,14.2890625 C345.309898,14.2890625 345.570312,14.6145801 345.570312,15.265625 C345.570312,15.7864609 345.179691,16.3072891 344.398438,16.828125 C343.877602,17.218752 343.421877,17.5442695 343.03125,17.8046875 L343.03125,20.34375 C343.552086,20.083332 343.877604,19.822918 344.007812,19.5625 C344.007812,19.432291 343.942709,19.2369805 343.8125,18.9765625 C343.682291,18.8463535 343.617188,18.7161465 343.617188,18.5859375 C343.617188,18.3255195 343.682291,18.1953125 343.8125,18.1953125 C343.942709,18.1953125 344.203123,18.130209 344.59375,18 L345.570312,18 C346.481775,18 346.9375,18.4557246 346.9375,19.3671875 C346.9375,19.6276055 346.872396,19.822916 346.742188,19.953125 C346.48177,20.083334 346.286459,20.213541 346.15625,20.34375 C345.895832,20.604168 345.375004,20.9296855 344.59375,21.3203125 L342.835938,22.4921875 C342.835938,22.8828145 342.770834,23.4036426 342.640625,24.0546875 C342.510416,24.8359414 342.380209,25.421873 342.25,25.8125 C341.729164,26.7239629 341.338543,27.1796875 341.078125,27.1796875 C340.557289,27.0494785 340.231771,26.5937539 340.101562,25.8125 C340.101562,25.552082 340.166666,25.2265645 340.296875,24.8359375 C340.427084,24.4453105 340.492188,24.0546895 340.492188,23.6640625 C340.101561,23.7942715 339.580732,24.0546855 338.929688,24.4453125 C337.36718,25.0963574 336.195316,25.6822891 335.414062,26.203125 C335.283854,26.333334 334.958336,26.593748 334.4375,26.984375 C332.744783,28.1562559 331.57292,28.7421875 330.921875,28.7421875 C330.401039,28.7421875 330.140625,28.4166699 330.140625,27.765625 C330.140625,27.505207 330.335936,27.3098965 330.726562,27.1796875 C330.98698,27.0494785 331.182291,26.9192715 331.3125,26.7890625 C331.442709,26.5286445 332.158848,25.8776094 333.460938,24.8359375 L333.851562,24.4453125 C336.195324,21.8411328 338.083326,19.8229238 339.515625,18.390625 C339.385416,18.390625 339.125002,18.4557285 338.734375,18.5859375 C338.213539,18.7161465 337.888021,18.78125 337.757812,18.78125 C337.106768,18.78125 336.78125,18.4557324 336.78125,17.8046875 C336.651041,16.8932246 337.953111,15.5911543 340.6875,13.8984375 L340.6875,12.3359375 C339.645828,12.7265645 338.473965,13.2473926 337.171875,13.8984375 C335.348949,14.8099004 333.851568,15.265625 332.679688,15.265625 C331.247389,15.005207 330.466146,14.4192754 330.335938,13.5078125 C330.335938,13.2473945 330.466145,13.1171875 330.726562,13.1171875 C330.856771,13.1171875 331.117186,13.182291 331.507812,13.3125 C331.898439,13.442709 332.223957,13.5078125 332.484375,13.5078125 C333.265629,13.5078125 334.567699,13.1171914 336.390625,12.3359375 C336.911461,12.2057285 337.302082,12.0755215 337.5625,11.9453125 C337.692709,11.9453125 338.148434,11.750002 338.929688,11.359375 C339.580732,11.098957 339.971354,10.96875 340.101562,10.96875 C340.492189,10.838541 340.6875,10.5130234 340.6875,9.9921875 C340.817709,8.2994707 340.752605,7.32291797 340.492188,7.0625 C338.278635,6.93229102 337.106771,6.41146289 336.976562,5.5 C336.976562,5.23958203 337.041666,5.04427148 337.171875,4.9140625 L337.953125,4.9140625 C338.994797,4.9140625 339.906246,5.04426953 340.6875,5.3046875 C342.380217,5.43489648 343.096355,6.80207031 342.835938,9.40625 C342.966146,9.79687695 343.096354,9.92708398 343.226562,9.796875 L344.398438,9.2109375 C344.528646,9.2109375 344.723957,9.08073047 344.984375,8.8203125 C346.156256,8.16926758 347.002602,7.84375 347.523438,7.84375 C348.044273,7.84375 348.239584,8.03906055 348.109375,8.4296875 C348.239584,8.95052344 348.17448,9.34114453 347.914062,9.6015625 C345.960928,10.7734434 344.268236,11.8802031 342.835938,12.921875 L342.835938,14.6796875 Z M353.578125,28.7421875 C352.145826,29.3932324 350.973963,29.848957 350.0625,30.109375 L350.0625,33.234375 L350.257812,33.234375 C351.039066,33.7552109 351.755205,34.015625 352.40625,34.015625 C353.057295,34.015625 353.838537,33.4947969 354.75,32.453125 C354.880209,32.192707 355.010416,31.9973965 355.140625,31.8671875 C355.270834,31.7369785 355.661455,31.2812539 356.3125,30.5 C356.963545,29.7187461 357.354166,29.2630215 357.484375,29.1328125 C357.744793,29.0026035 357.875,28.8723965 357.875,28.7421875 L357.484375,28.546875 C355.791658,28.286457 354.489588,28.3515605 353.578125,28.7421875 Z M335.804688,24.25 C337.106777,23.5989551 338.669262,22.7526094 340.492188,21.7109375 L340.492188,19.5625 C339.450516,20.3437539 337.888031,21.9062383 335.804688,24.25 Z M343.03125,11.359375 L343.03125,12.3359375 C344.072922,11.6848926 345.179682,10.9036504 346.351562,9.9921875 C346.742189,9.73176953 346.677086,9.66666602 346.15625,9.796875 C345.374996,10.057293 344.33334,10.5781211 343.03125,11.359375 Z M337.953125,17.0234375 L340.6875,15.8515625 L340.6875,14.6796875 C339.515619,15.4609414 338.60417,16.2421836 337.953125,17.0234375 Z M392.140625,39.484375 C392.140625,39.354166 392.270832,39.093752 392.53125,38.703125 C392.791668,38.833334 392.986979,39.2239551 393.117188,39.875 C393.247396,40.135418 393.3125,40.3307285 393.3125,40.4609375 C395.005217,43.1953262 396.372391,44.6276035 397.414062,44.7578125 C397.804689,44.7578125 398.130207,44.562502 398.390625,44.171875 C399.953133,41.5676953 400.604168,36.8802422 400.34375,30.109375 C400.34375,29.718748 400.278646,29.1979199 400.148438,28.546875 C400.018229,27.1145762 399.888021,26.0078164 399.757812,25.2265625 C396.632797,26.3984434 393.247414,27.8958242 389.601562,29.71875 C385.695293,31.8020938 382.570324,33.3645781 380.226562,34.40625 C379.054682,35.4479219 377.947922,36.0338535 376.90625,36.1640625 C376.124996,36.1640625 375.734375,35.8385449 375.734375,35.1875 C375.604166,34.796873 375.799477,34.536459 376.320312,34.40625 C378.143238,33.3645781 379.901033,32.4531289 381.59375,31.671875 L381.984375,31.28125 C382.244793,30.6302051 382.505207,30.239584 382.765625,30.109375 C383.807297,29.1979121 385.565092,27.6354277 388.039062,25.421875 C391.815123,22.0364414 394.15885,19.8229219 395.070312,18.78125 C394.028641,18.911459 392.791674,19.4322871 391.359375,20.34375 C390.187494,20.9947949 389.341148,21.3203125 388.820312,21.3203125 L388.429688,21.3203125 C387.908852,21.4505215 387.583334,21.1901074 387.453125,20.5390625 C387.583334,20.1484355 387.908852,19.953125 388.429688,19.953125 C388.690105,19.822916 388.885416,19.7578125 389.015625,19.7578125 C391.489596,18.4557227 394.15884,17.0234453 397.023438,15.4609375 C395.070303,14.6796836 394.09375,13.8333379 394.09375,12.921875 C394.223959,12.531248 394.484373,12.401041 394.875,12.53125 C395.395836,12.53125 396.177078,12.7916641 397.21875,13.3125 C398.260422,13.8333359 398.976561,14.09375 399.367188,14.09375 C399.627605,14.09375 399.953123,13.963543 400.34375,13.703125 C400.734377,13.442707 401.059895,13.3125 401.320312,13.3125 C402.231775,13.3125 402.6875,13.7031211 402.6875,14.484375 C402.6875,14.875002 402.427086,15.265623 401.90625,15.65625 C401.385414,16.046877 401.059896,16.3723945 400.929688,16.6328125 C401.320314,18.1953203 401.645832,20.0833223 401.90625,22.296875 C404.51043,21.3854121 407.570295,20.6041699 411.085938,19.953125 L412.0625,18.9765625 C413.885426,18.7161445 415.643221,18.8463516 417.335938,19.3671875 C417.596355,19.6276055 417.726562,19.953123 417.726562,20.34375 C417.726562,21.2552129 417.466148,21.7109375 416.945312,21.7109375 C416.684895,21.7109375 416.294273,21.645834 415.773438,21.515625 C415.382811,21.385416 415.122396,21.3203125 414.992188,21.3203125 L414.796875,21.3203125 C414.536457,21.4505215 413.885422,21.515625 412.84375,21.515625 C408.546854,22.4270879 405.031264,23.4036406 402.296875,24.4453125 C402.557293,26.2682383 402.6875,28.3515508 402.6875,30.6953125 C403.078127,35.5130449 402.687506,39.7447734 401.515625,43.390625 C400.343744,46.2552227 399.302088,47.817707 398.390625,48.078125 L397.804688,48.078125 C394.028627,45.0833184 392.140625,42.2187637 392.140625,39.484375 Z M383.546875,30.890625 C390.187533,27.3749824 395.591125,24.8359453 399.757812,23.2734375 C399.367186,21.7109297 399.106771,20.1484453 398.976562,18.5859375 C398.846354,18.4557285 398.651043,18.390625 398.390625,18.390625 C392.140594,23.2083574 387.192727,27.3749824 383.546875,30.890625 Z M398.976562,5.5 C398.976562,5.23958203 398.846355,4.91406445 398.585938,4.5234375 C398.32552,4.00260156 398.130209,3.67708398 398,3.546875 C398,3.02603906 398.455725,2.765625 399.367188,2.765625 C399.497396,2.765625 399.822914,2.96093555 400.34375,3.3515625 L402.6875,4.5234375 C402.947918,4.78385547 403.078125,5.23958008 403.078125,5.890625 C403.078125,6.41146094 402.6224,6.86718555 401.710938,7.2578125 C401.45052,7.2578125 401.255209,7.32291602 401.125,7.453125 C396.958313,9.27605078 392.335963,12.1406055 387.257812,16.046875 C386.997395,16.177084 386.802084,16.177084 386.671875,16.046875 C386.541666,15.916666 386.541666,15.7213555 386.671875,15.4609375 C387.713547,14.6796836 389.210928,13.3776133 391.164062,11.5546875 C394.289078,8.55988086 396.893219,6.54167187 398.976562,5.5 Z" id="出行好帮手"></path>
        </g>
    </g>
</svg>